<svg xmlns="http://www.w3.org/2000/svg" viewBox="30 -115 580 830"><g><path d="M232 181q0 7 -14 7q-6 0 -6 -2q0 -3 7 -5t10 -2t3 2zM610 655v-710q0 -25 -17.5 -42.5t-42.5 -17.5h-460q-25 0 -42.5 17.5t-17.5 42.5v710q0 25 17.5 42.5t42.5 17.5h460q25 0 42.5 -17.5t17.5 -42.5zM550 685h-460q-13 0 -21.5 -8.5t-8.5 -21.5v-710q0 -13 8.5 -21.5 t21.5 -8.5h460q13 0 21.5 8.5t8.5 21.5v710q0 13 -8.5 21.5t-21.5 8.5zM351 302q9 0 9 -8q0 -12 -10 -12q-9 0 -9 11q0 9 10 9zM277 297q0 10 10 10t10 -11q0 -8 -9 -8q-11 0 -11 9zM416 322q0 -3 -3 -6t-5 -3q-10 0 -10 7q0 11 9 11t9 -9zM237 366q10 0 10 -12q0 -8 -11 -8 q-10 0 -10 8q0 12 11 12zM313 357q0 -8 -9 -8q-11 0 -11 8q0 11 10 11t10 -11zM369 375q10 0 10 -12q0 -9 -11 -9q-9 0 -9 10q0 11 10 11zM434 362q-12 0 -12 9q0 5 4 8.5t8 3.5q8 0 8 -11q0 -10 -8 -10zM346 416q0 -10 -11 -10t-11 10t11 10t11 -10zM247 419q0 4 4 8t8 4 t7.5 -4t3.5 -8q0 -9 -12 -9q-11 0 -11 9zM406 428q0 11 10 11q9 0 9 -10t-11 -10q-8 0 -8 9zM298 473q0 10 13 10q9 0 9 -9q0 -11 -11 -11t-11 10zM376 463q-9 0 -9 9q0 11 10 11t10 -9q0 -11 -11 -11zM296 16q0 -3 -4 -3q-2 0 -5.5 2.5t-5.5 1.5q-1 0 -18 -11.5t-22 -11.5 q-3 0 -3 3q0 1 9.5 10t9.5 10t-2 1q-6 0 -14.5 -1.5t-9.5 -1.5q-3 0 -3 2q0 7 37 11q7 1 9 5t2 21q0 7 -1.5 14.5t-1.5 8.5q0 2 3 2q11 0 16 -8q1 -2 1 -8q0 -21 -5 -36q8 -6 8 -11zM347 41q0 -14 2.5 -18.5t12 -6t16.5 -5.5q0 -1 1.5 -2t1.5 -2q0 -2 -5 -2q-2 0 -14.5 2 t-16.5 2q-1 0 -10.5 -7.5t-14.5 -7.5q-2 0 -2 3q0 1 4 5q8 10 5 10q-1 0 -12.5 -5t-15.5 -5q-3 0 -3 2q0 3 18 14.5t18 26.5q0 4 -0.5 9.5t-1.5 12t-1 10.5q-1 3 2 3h1q17 0 17 -10q0 -4 -1 -14.5t-1 -14.5zM253 200q0 -3 -3 -3t-7 6t-4 10q0 2 2 2q4 0 8 -5.5t4 -9.5z M304 217q0 4 -6 4q-10 0 -10 -9q0 -5 6 -5q10 0 10 10zM288 146q0 5 -3 5q-4 0 -9.5 -6.5t-5.5 -10.5t4 -4q3 0 8.5 6t5.5 10zM320 177q0 8 -7 8q-9 0 -9 -7q0 -8 8 -8t8 7zM228 115q-51 0 -51 -5q0 -4 13 -4q4 0 15 0.5t17 0.5q13 0 13 4t-7 4zM326 239q-7 0 -7 -5t7 -5 q6 0 6 5t-6 5zM343 236q-7 0 -7 -8q0 -5 6 -5q9 0 9 7q0 6 -8 6zM311 234q-8 0 -8 -6t8 -6q2 -1 4 0.5t2 4.5q0 7 -6 7zM324 210q9 0 9 8q0 6 -7 6q-8 0 -8 -8q0 -6 6 -6zM361 218q0 5 -5 5q-6 0 -6 -5q0 -6 5 -6q6 0 6 6zM318 204q0 7 -7 7t-7 -7t7 -7t7 7zM349 207 q0 6 -9 6q-2 0 -5 -3t-3 -6q0 -6 8 -6q3 0 6 3t3 6zM427 195q0 -4 4 -4q26 0 26 7q0 4 -8 4q-5 0 -13.5 -2.5t-8.5 -4.5zM325 200q-8 0 -8 -8q-1 -3 2.5 -5.5t5.5 -2.5q8 0 8 7q0 9 -8 9zM296 183q7 0 7 8q0 7 -7 7q-8 0 -8 -8q0 -7 8 -7zM466 186q-23 0 -23 -8q0 -3 6 -3 q3 0 11 0.5t10 0.5q6 0 6 4q0 6 -10 6zM174 183q0 -5 19 -5q6 0 6 3q0 6 -15 6q-10 0 -10 -4zM283 164q2 0 4.5 4t2.5 6q0 8 -7 8q-12 0 -12 -10q0 -8 12 -8zM205 175q0 -3 10.5 -6t15.5 -3q2 0 2 2t-7.5 6t-14.5 4q-6 0 -6 -3zM298 170q-2 0 -4.5 -3t-2.5 -5q0 -7 7 -7t7 9 q0 6 -7 6zM456 160q0 -4 26 -4q9 0 9 3q0 6 -16 6q-19 0 -19 -5zM159 168q0 -6 22 -6q7 0 7 3q0 8 -17 8q-12 0 -12 -5zM276 156q0 6 -7 6q-8 0 -8 -15q0 -6 4 -6q2 0 6.5 5.5t4.5 9.5zM198 160q0 -1 13 -3.5t15 -2.5q4 0 4 1q0 2 -3 4t-9 4t-12 2q-8 0 -8 -5zM506 137 q0 9 -26 9q-8 0 -11 -1t-2 -4q0 -3 14.5 -5.5t18.5 -2.5q6 0 6 4zM162 155q-18 0 -18 -6q0 -5 18 -5q16 0 16 5q0 6 -16 6zM230 142q0 8 -27 8q-13 0 -13 -5t31 -5q9 0 9 2zM231 126q0 8 -39 8q-12 0 -12 -5q0 -2 1 -2.5t4.5 -1t7 -0.5h11.5t15 -1q12 -1 12 2zM133 125 q0 -4 10 -4q7 0 16.5 3t9.5 5q0 5 -12 5q-24 0 -24 -9zM500 121q-8 2 -17 2t-9 -3q0 -9 31 -12q5 -1 5 3q0 8 -10 10zM166 108q0 4 -12 4q-9 0 -15.5 -2t-9 -5t-2.5 -5q0 -4 4 -4q5 0 20 4.5t15 7.5zM446 228q0 1 6.5 4.5t16.5 6.5t17 3q9 0 12 -6q1 -2 -1 -2.5t-9 -0.5 q-11 -1 -20.5 -2.5t-13.5 -2.5t-5 -1q-3 0 -3 1zM178 230q-8 0 -27.5 4.5t-19.5 9.5q0 2 11 2q5 0 14.5 -3.5t16.5 -7t7 -4.5t-2 -1zM204 255q0 1 2 1q3 0 16 -13t13 -20t-6 -7q-8 0 -20 5t-12 8q0 1 3 1t10.5 -2t8.5 -2q2 0 2 2q0 4 -8.5 14.5t-8.5 12.5zM428 238 q0 1 11.5 9.5t28 17t25.5 8.5t9 -3t-67 -31q-8 -4 -7 -1zM195 246q0 -2 -2 -2q-4 0 -28 20q-8 6 -19.5 11.5t-18.5 8.5t-7 4q0 2 8 2q16 -1 32.5 -11t25.5 -19.5t9 -13.5zM393 237q28 31 58 50t46 19q6 0 6 -4q0 -2 -2 -3q-5 -4 -21 -11.5t-21 -10.5q-20 -13 -36.5 -25 t-23 -16.5t-8.5 -4.5q-4 0 2 6zM134 331q6 0 20 -5t35.5 -21t34.5 -40q4 -10 4 -11q0 -3 -2 -3l-11 11q-56 55 -82 65q-3 1 -3 3q0 1 4 1zM152 535q3 0 32.5 -45t36.5 -45q2 0 2 2q0 3 -26.5 38t-26.5 46q0 3 3 3q2 0 28 -38t30 -38q2 0 2 1q0 4 -23.5 37.5t-23.5 38.5 q0 3 3 3q4 0 23 -32t22 -32q2 0 2 2t-11 22t-11 26q0 4 2 4q3 0 17 -29.5t15 -29.5q2 0 2 4t-12 31t-12 31q0 3 3 3q2 0 15 -29l14 -29q6 -8 8 -5q0 1 -12.5 43.5t-12.5 56.5q0 6 3 6q4 0 15.5 -46.5t14.5 -46.5q4 0 4 5q0 4 -9 34.5t-9 50.5q0 10 2 10q7 0 15 -42.5 t10 -42.5q3 0 3 10q0 4 -3.5 30t-3.5 35q0 16 3 16q4 0 8 -24.5t4 -47.5q0 -15 5 -15q3 0 3 16q0 9 -1.5 29t-1.5 27q0 12 3 12q5 0 7.5 -40t5.5 -40q5 0 5 30q0 31 2 31q7 0 7 -32q0 -4 -0.5 -13t-0.5 -13q0 -9 5 -5q2 1 2 3q1 2 4 16t6.5 24t7.5 10q3 0 3 -7 q0 -5 -5 -21.5t-5 -22.5q0 -2 3 -2t17 42t18 42q3 0 3 -15q-1 -8 -6.5 -24t-10 -28.5t-4.5 -13.5q0 -3 3 -3t19.5 40.5t21.5 40.5q2 0 2 -4q0 -11 -13.5 -41t-13.5 -34q1 -1 2 -1q3 0 21.5 33.5t20.5 33.5q3 0 3 -4q0 -5 -9 -24q-6 -11 -12.5 -21.5t-9.5 -15.5t-3 -6 q0 -2 3 -2q4 0 19 25.5t17 25.5q3 0 3 -4q0 -8 -14 -29l-15 -21q0 -3 2 -3t16.5 20t18.5 20q2 0 2 -4q0 -6 -18.5 -26.5t-18.5 -22.5l2 -2q7 0 40 33q30 33 33 33q2 0 2 -4q0 -11 -32.5 -40t-32.5 -30q0 -2 2 -2q8 0 43.5 32t39.5 32q2 0 2 -3q0 -7 -38 -38.5t-38 -33.5 q0 -3 0.5 -3h2.5q3 0 35 23.5t37 23.5q2 0 2 -2q0 -4 -6 -9q-30 -22 -54 -37q-9 -6 -9 -9t2 -3q1 0 26.5 16t33.5 16q5 0 2 -5q-1 -3 -13 -9.5t-26 -14t-18 -10.5q-5 -5 3 -5q2 0 22 11t27 11q5 0 5 -4q0 -2 -24.5 -13t-24.5 -15q0 -3 4 -3q1 0 22.5 5.5t24.5 5.5q8 0 8 -4 t-31 -11t-31 -10q0 -4 3 -4q5 0 27 5.5t27 5.5t5 -3t-4.5 -4.5t-18.5 -4t-27 -6.5q-3 -1 -4.5 -3t0 -3.5t4.5 -1.5q5 0 22 4t20 4q5 0 5 -3q0 -6 -45 -13q-2 0 -3.5 -2t0 -4t5.5 -2q3 0 16.5 3t18.5 3q3 0 3 -1q0 -5 -22 -9.5t-22 -7.5t7 -3q5 0 16 3l11 2q5 0 5 -3 q0 -5 -28.5 -9t-28.5 -11q1 -1 3 -1t10.5 2t12.5 2q6 0 6 -4q0 -3 -14 -5t-18 -2q-5 0 -5 -3q0 -2 3 -2q4 0 11 1t8 1q4 0 4 -3q0 -7 -28 -7q-3 -1 -3 -7q2 0 7 0.5t7.5 1t3.5 -0.5q0 -3 -4.5 -4.5t-12 -3.5t-12.5 -6q-10 -9 -21.5 -10.5t-15.5 -2.5q-1 0 -17.5 -14.5 t-32.5 -14.5q-4 0 -14 3.5t-15 3.5q-3 0 -12 -3t-15 -3q-11 0 -20 8.5t-10 9.5q-1 0 -9.5 2.5t-14 5t-5.5 5.5q0 2 2 2q3 0 9 -2.5t8 -2.5t2 2q0 3 -17 7t-17 8q0 2 3 2q4 0 13 -2l9 -3q5 0 5 1q0 6 -7 6q-41 7 -41 15q0 3 3 3t18.5 -6t19.5 -6q3 0 3 2q0 3 -7.5 6t-19 7 t-18.5 8q-19 12 -38 31t-19 24q0 4 3 4q2 0 21 -17.5t25 -17.5q2 0 2 3q0 2 -6.5 7t-16.5 14t-17 19q-3 4 -3.5 7t0 5t1.5 2q2 0 20.5 -20.5t24.5 -20.5q2 0 2 2t-22 27t-22 32q0 3 2 3t22.5 -23.5t27.5 -23.5l1 2q0 1 -24 28t-24 38q0 2 1 2q3 0 25 -28.5t27 -28.5q3 0 3 2 q0 3 -11.5 17.5t-25 31t-17.5 22.5q-6 10 1 10q2 0 24 -28t28 -28q2 0 2 1q0 2 -4.5 7t-10.5 12t-9 10q-41 56 -41 70q0 3 3 3zM375 450q7 0 16.5 6t9.5 19q0 21 -22 21q-27 0 -27 -23q0 -11 6.5 -17t16.5 -6zM335 474q0 7 -6.5 14t-16.5 7q-29 0 -29 -28q0 -8 7.5 -12.5 t14.5 -4.5q11 0 20.5 8t9.5 16zM388 429q0 -23 24 -23q10 0 18.5 6.5t8.5 16.5q0 24 -23 24q-12 0 -20 -7.5t-8 -16.5zM286 419q0 11 -8 19.5t-18 8.5q-13 0 -22 -7.5t-9 -20.5q0 -26 29 -26q11 0 19.5 8t8.5 18zM333 390q3 0 8.5 1.5t12.5 9t7 19.5q0 13 -7.5 18.5 t-14.5 5.5q-9 0 -21 -6t-12 -20q0 -11 8 -19.5t19 -8.5zM430 350q27 0 27 22q0 9 -6 17t-17 8q-8 0 -17 -6t-9 -18q0 -9 6 -16t16 -7zM342 365q0 -11 8 -17t18 -6q25 0 25 23q0 9 -6.5 16.5t-16.5 7.5q-13 0 -20.5 -7t-7.5 -17zM300 385q-11 0 -18 -8.5t-7 -19.5 q0 -25 32 -25q12 0 18.5 9t6.5 17q0 27 -32 27zM236 381q-8 0 -17 -6.5t-9 -22.5q0 -4 1.5 -8t8 -8.5t16.5 -4.5q28 0 28 23q0 11 -8.5 19t-19.5 8zM383 319q0 -7 9 -13t15 -6q9 0 16.5 6.5t7.5 13.5q0 9 -7.5 16.5t-17.5 7.5q-9 0 -16 -8t-7 -17zM311 295q0 26 -25 26 q-24 0 -24 -21q0 -10 7.5 -18t20.5 -8q21 0 21 21zM375 298q0 11 -9.5 16t-18.5 5q-22 0 -22 -28q0 -22 22 -22q5 0 10 1.5t11.5 8.5t6.5 19zM354 100q-8 0 -24 3t-23 3q-5 0 -20 -6t-24 -6q-5 0 -21 2.5t-23 2.5q-59 0 -104 -17q-2 4 -2 12q0 42 28 72.5t56 30.5q8 0 18 -3 t11 -3q4 0 4 3q0 1 -2.5 4.5t-2.5 4.5q0 5 2 5t5 -4t5.5 -13.5t2.5 -20.5q0 -5 -0.5 -18t-0.5 -16q0 -34 21 -34q7 0 24 6.5t28 6.5q3 0 7 -0.5t6 -0.5q16 0 16 22q0 7 -8.5 13.5t-16.5 6.5q-10 0 -23.5 -17t-22.5 -17q-16 0 -16 24q0 10 5.5 28t5.5 27q0 12 -5.5 17.5 t-11.5 6.5t-6 2q0 2 6 2q10 0 18 -10.5t10 -10.5t8 9t18 17.5t29 8.5q20 0 33 -18.5t14 -18.5l15 4q15 5 37 5q30 0 63 -31t33 -77l-3 -17q-2 0 -37 6t-57 6q-35 0 -52 -1t-23 -1zM355 107q6 0 36.5 4.5t56.5 4.5q14 0 14 4q0 8 -19 8q-11 0 -34 -4t-28 -4q-4 0 -4 1 q0 5 26 10.5t37 5.5t11 5t-10 5t-30.5 -5t-25.5 -5q-3 0 -3 2q0 7 46 14q11 1 11 6q0 3 -6 3q-7 0 -25.5 -5.5t-21.5 -5.5q-6 0 1 5q2 2 4 3q6 2 13 4.5t10.5 3.5l7 2t4.5 2.5t1 2.5q0 3 -5 3q-6 0 -20.5 -5.5t-16.5 -5.5q-3 0 -3 1q0 3 18.5 11.5t18.5 10.5q0 3 -4 3 q-3 0 -17 -7.5t-18 -7.5q-2 0 -2 2q0 4 16.5 12.5t16.5 11.5q0 2 -4 2q-7 0 -17.5 -5.5t-17.5 -10.5l-8 -5q-4 0 -4 4q0 1 3.5 6.5t3.5 7.5q0 4 -6 4t-22 -18t-16 -21q0 -1 13.5 -9.5t13.5 -24.5q0 -15 -9 -24q8 -2 14 -2z" /></g></svg>