<svg xmlns="http://www.w3.org/2000/svg" viewBox="30 -115 580 830"><g><path d="M610 655v-710q0 -25 -17.5 -42.5t-42.5 -17.5h-460q-25 0 -42.5 17.5t-17.5 42.5v710q0 25 17.5 42.5t42.5 17.5h460q25 0 42.5 -17.5t17.5 -42.5zM550 685h-460q-13 0 -21.5 -8.5t-8.5 -21.5v-710q0 -13 8.5 -21.5t21.5 -8.5h460q13 0 21.5 8.5t8.5 21.5v710 q0 13 -8.5 21.5t-21.5 8.5zM391 86q0 -2 1.5 -9t1.5 -12t-3 -11q-19 -13 -37 -13q-1 1 -3 6t-3 7q-6 -2 -13.5 -7t-12.5 -7q4 -6 20 -12.5t25 -6.5q8 0 19 7.5t15 9.5q5 2 19 3t22 5.5t8 15.5q0 8 -21 15.5t-38 8.5zM307 74q0 -16 5 -16q4 0 8.5 1.5t12 4.5t14.5 5 q-2 11 -1 16q-6 -1 -39 -11zM247 56q4 -10 7 -16q14 3 32 11q-5 6 -5 16zM306 119v-27q22 4 39 11q0 17 -1 26q-5 -2 -17.5 -5t-20.5 -5zM304 159v-22q14 1 40 9q0 15 1 23q-22 -7 -41 -10zM307 197q0 -5 -1.5 -11t-1.5 -10q10 2 23 4.5t19 3.5q0 5 0.5 12t0.5 11 q-9 -2 -21 -5.5t-19 -4.5zM282 155q-6 -1 -13 -2q-6 0 -6.5 -1t-0.5 -4v-4t0.5 -7t0.5 -7q5 0 19 2v23zM262 188v-18h2l2 -1l18 3q0 8 2 20zM282 114q-4 0 -16 -5l-4 -8q-5 -8 -9 -12q-15 9 -15 58q0 38 4 55q37 6 81.5 18t55.5 12q21 0 21 -14l-7 -26q-7 -26 -7 -54 q0 -16 2 -34q19 -1 41 -6t45.5 -20t23.5 -35q0 -17 -13 -26t-33 -9q-5 0 -22.5 -6.5t-26.5 -6.5q-13 0 -47.5 13.5t-48.5 22.5q-4 -1 -10 -6t-9 -5q-5 0 -32 8q0 -1 -0.5 -6t-1 -7.5t-1 -6t-2.5 -5.5t-5 -2t-6.5 4t-6 10.5t-5 12.5t-4.5 13t-3 9h-12q-19 0 -35 6t-16 17 q0 1 0.5 3t0.5 4q9 0 25 -2t25 -2h4q-1 8 -4 22.5t-5 24t-2 14.5q0 2 4 6q12 -2 17.5 -11.5t9.5 -26.5t10 -28q14 0 38 8q0 3 0.5 14t0.5 15zM407 251q-30 0 -89 -17.5t-78 -17.5q-60 0 -78 22q18 11 27 11q10 0 30.5 -5t34.5 -5q20 0 27 4t7 18q0 3 -5.5 4.5t-7.5 4.5 q0 4 1.5 6t5 5.5t5.5 7.5q2 3 7.5 12.5t9 13t8.5 3.5q7 0 7 -10q0 -8 -1.5 -16.5t-5 -19t-4.5 -16.5q2 -5 7 -5q6 0 17.5 23t11.5 33q0 6 -6.5 11.5t-8.5 8.5q8 18 35 28q20 -7 20 -37q0 -10 -8.5 -24t-9.5 -26q8 1 22 4t28 4.5t30 1.5q32 0 37 -7q-7 -14 -22 -21 q-13 1 -54 1zM205 448q-59 0 -59 15q0 9 16 9q4 0 14 -0.5t16 -0.5q54 0 124.5 30t84.5 30q16 0 32.5 -4.5t24.5 -4.5q22 0 29 -6t7 -21q0 -10 -5.5 -19t-14.5 -9q-1 0 -26 10t-60 10q-47 0 -98.5 -19.5t-84.5 -19.5z" /></g></svg>