<svg xmlns="http://www.w3.org/2000/svg" viewBox="30 -115 580 830"><g><path d="M391 86q0 -2 1.5 -9t1.5 -12t-3 -11q-19 -13 -37 -13q-1 1 -3 6t-3 7q-6 -2 -13.5 -7t-12.5 -7q4 -6 20 -12.5t25 -6.5q8 0 19 7.5t15 9.5q5 2 19 3t22 5.5t8 15.5q0 8 -21 15.5t-38 8.5zM307 74q0 -16 5 -16q4 0 8.5 1.5t12 4.5t14.5 5q-2 11 -1 16q-6 -1 -39 -11z M247 56q4 -10 7 -16q14 3 32 11q-5 6 -5 16zM306 119v-27q22 4 39 11q0 17 -1 26q-5 -2 -17.5 -5t-20.5 -5zM304 159v-22q14 1 40 9q0 15 1 23q-22 -7 -41 -10zM307 197q0 -5 -1.5 -11t-1.5 -10q10 2 23 4.5t19 3.5q0 5 0.5 12t0.5 11q-9 -2 -21 -5.5t-19 -4.5zM282 155 q-6 -1 -13 -2q-6 0 -6.5 -1t-0.5 -4v-4t0.5 -7t0.5 -7q5 0 19 2v23zM262 188v-18h2l2 -1l18 3q0 8 2 20zM282 114q-4 0 -16 -5l-4 -8q-5 -8 -9 -12q-15 9 -15 58q0 38 4 55q37 6 81.5 18t55.5 12q21 0 21 -14l-7 -26q-7 -26 -7 -54q0 -16 2 -34q19 -1 41 -6t45.5 -20 t23.5 -35q0 -17 -13 -26t-33 -9q-5 0 -22.5 -6.5t-26.5 -6.5q-13 0 -47.5 13.5t-48.5 22.5q-4 -1 -10 -6t-9 -5q-5 0 -32 8q0 -1 -0.5 -6t-1 -7.5t-1 -6t-2.5 -5.5t-5 -2t-6.5 4t-6 10.5t-5 12.5t-4.5 13t-3 9h-12q-19 0 -35 6t-16 17q0 1 0.5 3t0.5 4q9 0 25 -2t25 -2h4 q-1 8 -4 22.5t-5 24t-2 14.5q0 2 4 6q12 -2 17.5 -11.5t9.5 -26.5t10 -28q14 0 38 8q0 3 0.5 14t0.5 15zM407 251q-30 0 -89 -17.5t-78 -17.5q-60 0 -78 22q18 11 27 11q10 0 30.5 -5t34.5 -5q20 0 27 4t7 18q0 3 -5.5 4.5t-7.5 4.5q0 4 1.5 6t5 5.5t5.5 7.5q2 3 7.5 12.5 t9 13t8.5 3.5q7 0 7 -10q0 -8 -1.5 -16.5t-5 -19t-4.5 -16.5q2 -5 7 -5q6 0 17.5 23t11.5 33q0 6 -6.5 11.5t-8.5 8.5q8 18 35 28q20 -7 20 -37q0 -10 -8.5 -24t-9.5 -26q8 1 22 4t28 4.5t30 1.5q32 0 37 -7q-7 -14 -22 -21q-13 1 -54 1zM610 655v-710q0 -25 -17.5 -42.5 t-42.5 -17.5h-460q-25 0 -42.5 17.5t-17.5 42.5v710q0 25 17.5 42.5t42.5 17.5h460q25 0 42.5 -17.5t17.5 -42.5zM550 685h-460q-13 0 -21.5 -8.5t-8.5 -21.5v-710q0 -13 8.5 -21.5t21.5 -8.5h460q13 0 21.5 8.5t8.5 21.5v710q0 13 -8.5 21.5t-21.5 8.5zM263 459 q-1 -3 -1 -9q0 -8 3.5 -20.5t3.5 -16.5q0 -1 -0.5 -2.5t-0.5 -2.5q5 -4 11 -2q11 11 19 47q-1 0 -4 -0.5t-5 -0.5q-21 0 -26 7zM311 406q23 0 69 24q-1 4 -1 13q0 4 0.5 11.5t0.5 9.5q0 19 -10 19q-3 0 -9.5 -4t-16 -10t-16.5 -9q-17 -31 -17 -54zM297 542q0 -2 -0.5 -16.5 t-3.5 -26.5t-9 -15q2 -9 6 -9q9 0 21 7q15 36 15 43q0 8 -9.5 12.5t-19.5 4.5zM236 438q-25 -25 -60 -46t-51 -21q-8 0 -11 4q43 21 86 61t43 70q0 5 -1.5 9t-5.5 9.5t-5 7.5q5 6 8.5 14.5t7.5 12.5q4 5 11.5 9.5t10.5 6.5q2 -2 12.5 -9t15.5 -15q23 0 77.5 24t55.5 24 q72 0 72 -20q0 -26 -19 -26q-8 0 -25 5t-26 5q-15 0 -57 -20q-32 -16 -37 -51q32 10 39 16t9 19q20 -2 26 -16q4 -3 1 -15t-3 -15q0 -10 4 -41q14 -7 48 -20t49 -23t15 -25q0 -10 -6.5 -17.5t-15.5 -7.5q-6 0 -37 19.5t-60 19.5q-6 0 -13 -1.5t-9 -1.5q-7 0 -7 4q0 1 1 6 t1 12q-17 -7 -36.5 -13.5t-29.5 -10t-19.5 -8t-13.5 -9t-4 -10.5q-1 -2 -7 -2q-17 0 -27 11t-10 27q0 7 5 18t5 18q0 9 -7 12z" /></g></svg>