<svg xmlns="http://www.w3.org/2000/svg" viewBox="30 -115 580 830"><g><path d="M149 248q9 -39 22 -56t47 -26q-22 -27 -24 -56q9 -10 14.5 -16.5t9 -11t6.5 -13t4.5 -12t5.5 -19.5l6 -24q-5 -1 -15 -1q-19 0 -26 16q-1 -5 -3.5 -13.5t-3 -11t-2.5 -8t-2.5 -7.5t-2.5 -6t-3.5 -6t-4 -6t-5.5 -7.5t-7 -8.5q-1 2 -6.5 9t-6.5 9t-4.5 8t-4.5 10t-2 10 t-1 13q0 11 1 18q-5 -6 -21 -6q-13 0 -20 -1q10 28 15.5 38.5t22 24t46.5 25.5q1 4 3 11.5t3 10.5q-6 -4 -27 -6q-2 14 -2 15q0 7 5 17q-14 -7 -23 -7q-17 0 -43 23q24 30 55 36q-13 9 -18 31q8 4 12 4zM208 391q-29 -15 -39 -42q-38 0 -69 28q8 6 22.5 10.5t15.5 5.5 q-13 9 -18 13t-12.5 20.5t-7.5 40.5q16 -4 27 -8t15 -6t12 -8t11 -8q0 2 -0.5 4.5t-0.5 3.5q0 6 2 15t3 14q6 -9 16 -23t13 -19.5t6.5 -16.5t3.5 -24zM368 128q7 -2 12 1q10 -20 20.5 -29.5t23.5 -16.5t21 -13q41 0 95 -39q-3 -15 -22 -15q-5 0 -7 1q10 -14 10 -28 q0 -8 -5 -21t-5 -14q-10 6 -22.5 8.5t-20.5 8.5t-17 25q-7 -23 -32 -23q-2 18 -2 23q0 26 9 42.5t10 25.5q-4 3 -19.5 11t-26.5 19t-22 34zM226 375q12 0 16 -8q21 21 43 21q12 0 23.5 -8t12.5 -18h21t8 -7.5t7 -11.5q35 0 43 -20q5 5 18 5q9 0 21.5 -17.5t12.5 -32.5 q0 -18 -7 -29q18 -1 18 -23q0 -9 -9 -20t-25 -14q5 -9 5 -16q0 -10 -10 -15.5t-24 -8.5t-17 -5q-10 -5 -21 -5q-15 0 -25 11q-7 -7 -11 -5q-2 1 -41 10.5t-56 26.5q-3 0 -7 1t-15.5 7t-20 14.5t-15.5 25.5t-7 39q0 19 15 19q7 0 11 -1q-5 15 -5 29q0 23 14.5 39.5t26.5 16.5 zM229 397q0 20 -15 47.5t-20 42.5q-5 4 -18.5 13t-20 14.5t-15 16t-12.5 22.5t-4 27q5 -2 11.5 -3.5t9.5 -2.5t6.5 -2.5t6 -4t4.5 -6.5q-1 5 -1 10q0 37 34 74q3 -14 9 -26t9 -23.5t3 -31.5q3 1 13 6t20 5q-4 -27 -11.5 -43.5t-19 -28.5t-13.5 -15q3 -10 19.5 -41t16.5 -52z M550 685h-460q-13 0 -21.5 -8.5t-8.5 -21.5v-710q0 -13 8.5 -21.5t21.5 -8.5h460q13 0 21.5 8.5t8.5 21.5v710q0 13 -8.5 21.5t-21.5 8.5zM610 655v-710q0 -25 -17.5 -42.5t-42.5 -17.5h-460q-25 0 -42.5 17.5t-17.5 42.5v710q0 25 17.5 42.5t42.5 17.5h460q25 0 42.5 -17.5 t17.5 -42.5zM404 102q3 13 8.5 22.5t15 16t16 10t20.5 9t20 8.5q0 -6 -2.5 -11t-2.5 -9q6 3 24.5 8t35.5 16q-7 -52 -44 -64q25 -15 26 -16q-30 -7 -46 -7q-30 0 -71 17zM386 92q12 -27 12 -39q0 -10 -17 -73q-10 9 -19 34q-10 -14 -31.5 -29t-41.5 -16q9 16 15.5 39 t12.5 31q-4 0 -10.5 -1.5t-9.5 -1.5q-2 0 -14 2q33 57 80 57q11 0 23 -3zM278 231q-9 0 -23.5 -12t-14.5 -22q0 -11 14.5 -17.5t39 -11.5t33.5 -9q8 1 8 19q0 15 -7 41q-10 0 -22 6t-28 6zM177 270q0 -33 14 -51.5t28 -18.5q8 0 13 7q3 11 30 28q-8 5 -12 16q-7 4 -27 10.5 t-27 16.5q-8 2 -11 2q-8 0 -8 -10zM337 131q0 -9 -6 -30q-21 7 -28 18q0 -18 -12 -33t-27 -21q-11 31 -11 43q0 8 3 18q-10 -8 -27 -7q0 15 13 34q12 -7 42.5 -15t45.5 -8q6 0 7 1zM251 293q15 27 46 27q6 0 9 -1q2 7 2 14q0 8 -12 8q-28 0 -36.5 -13t-8.5 -35zM256 274 q0 -24 16 -34q22 0 35.5 -6t27.5 -6q16 0 16 38q0 13 -5 16.5t-15.5 5.5t-18.5 9q-2 2 -2.5 5.5t-3 4.5t-9.5 1q-15 0 -28 -11t-13 -23zM338 219q7 -26 7 -41q0 -11 -2 -15q3 -11 20 -11q8 0 14 4q5 3 16.5 5.5t19.5 5.5t8 8q0 11 -10.5 19t-31 15.5t-23.5 9.5q-9 -1 -18 0z M349 325q-3 -1 -12 -1q-8 0 -21 5q0 -5 -3 -13q2 -2 3 -6t5 -8t16 -7q7 19 18 22zM249 263q-7 16 -7 42q0 6 2 14q-1 3 -5 16t-8 20.5t-8 7.5q-7 0 -16.5 -12t-9.5 -33q0 -18 5.5 -28.5t10.5 -13.5t18 -7t18 -6zM310 359q0 7 -10 13.5t-16 6.5q-32 -5 -38 -29q0 -2 1 -8.5 t2 -8.5q6 9 23 13.5t25 4.5q2 5 13 8zM351 227q18 0 31 13.5t13 30.5q0 14 -8 23.5t-14 12t-10 2.5q-9 0 -18 -17q15 -5 15 -33q0 -22 -9 -32zM405 267q0 -3 -1.5 -9.5t-10.5 -18t-23 -17.5q9 -4 10 -4q18 0 38 17.5t20 41.5q0 7 -4 16t-8.5 14.5t-6.5 5.5q-12 0 -15 -4 q4 -14 1 -29v-13zM421 199q13 1 21.5 11.5t8.5 16.5q0 4 -3.5 8t-9.5 4q-3 0 -7.5 -4.5t-14 -11.5t-22.5 -10q20 -7 27 -14zM337 352q-25 0 -28 -4q5 -3 7 -11q12 -6 20 -6q9 0 11 7q-3 7 -10 14zM395 299l1 2v3q0 10 -9.5 19.5t-24.5 9.5l-7 -2q2 -1 12 -14q19 -5 28 -18z M428 635l18 -14l-4 -10l-4 -14l29 4l9 6l23 -9l-4 -11l-12 1l-48 -4l-6 -13l44 3l12 5l19 -6l-5 -12h-14l-33 -2l14 -10l27 3l18 -5l6 -12l-16 -2h-19l20 -14l28 -30l-29 1l-39 42l-58 -5l-35 -34l-24 -11l36 44h-29l-4 11l41 2l11 16l-28 -2l-11 3l-3 7l48 5l7 14l-37 -3 l-11 5l-2 6l55 5l4 9l-12 12zM397 518l16 -6l52 6l12 -5l-4 -68l-14 -2l-3 8l-43 -2l-4 -7l-14 3l-4 62zM411 501v-14l44 2v16zM412 473v-13l43 2v15zM440 559l-17 -3l-9 -13l37 3z" /></g></svg>