<svg xmlns="http://www.w3.org/2000/svg" viewBox="30 -115 580 830"><g><path d="M482 590l30 -7l8 -10l-10 -17l-26 -11l13 22zM466 635l16 -7l8 -12l-9 -14l-2 -50l2 -17l19 -47l30 -26l-27 -11l-18 25l-9 41l-4 10l-23 -64l-33 -20l22 39l18 59l-9 -3l-17 28l12 10l18 -8l-2 35l-11 12zM394 535l-21 -34l9 -15l9 -6zM417 626l7 -14l-12 -13l-2 -16 l28 8l3 -8l-30 -21v-12l27 -11l2 -11l-28 2l2 -56l-12 -22l-15 3l-17 39l-26 -11l20 30l21 43l-35 -3l-6 12l50 14v17l-33 -4l-2 11l40 20zM324 319l8 2l3 -8l-9 -4zM343 306l-1 -9l-8 6zM312 315l4 -6l-7 -5l-6 1l1 9zM292 311l1 -7l-5 -3l-5 5zM320 301l5 -4l-6 -6l-5 6z M274 299l6 -8l-8 -6l-4 8zM296 294l9 -2l2 -7l-11 -7l-6 11zM331 291l8 -3l-1 -7l-3 -7l-9 9zM313 277l7 -6l-8 -9l-8 9zM282 281l7 -10l-9 -6l-6 8zM258 283l6 -8l-14 -6zM261 263l8 -3l4 -17h-16l-7 10zM384 273l10 4l-2 -8zM323 256l6 7l7 -4l-4 -8zM344 245l3 12l9 1 l3 -9l-7 -8zM369 251l-3 12l11 4l7 -7l-6 -7zM294 261l11 -10l-7 -9l-12 -3l-4 14zM316 247l10 -6l-7 -14l-10 8zM330 218l8 15l13 -7l-5 -13zM269 221l-8 11l11 1zM298 229l12 -14l-16 -16l-15 12l5 15zM239 164q-42 0 -83.5 13.5t-55.5 43.5q23 7 41 7q34 0 61.5 -17 t36.5 -47zM378 136q19 11 46 11q36 0 70 -19.5t46 -44.5q-17 -7 -35 -7q-48 0 -127 60zM296 125q8 -19 8 -41q0 -63 -65 -128q-7 28 -7 55q0 81 64 114zM550 685h-460q-13 0 -21.5 -8.5t-8.5 -21.5v-710q0 -13 8.5 -21.5t21.5 -8.5h460q13 0 21.5 8.5t8.5 21.5v710 q0 13 -8.5 21.5t-21.5 8.5zM610 655v-710q0 -25 -17.5 -42.5t-42.5 -17.5h-460q-25 0 -42.5 17.5t-17.5 42.5v710q0 25 17.5 42.5t42.5 17.5h460q25 0 42.5 -17.5t17.5 -42.5zM471 -29l-13 -15q-78 80 -122 164l14 4q4 -6 12.5 -19.5t12.5 -19t12.5 -17t15.5 -20t17 -21.5 t23 -26.5t28 -29.5zM231 494l14 1q0 -69 17 -154l-14 -9q-17 89 -17 162zM100 510q23 23 58 23q22 0 63 -39q-13 -9 -34 -9q-48 0 -87 25zM175 645q64 -23 64 -87q0 -13 -5 -48q-29 19 -45.5 52.5t-16.5 62.5q0 11 3 20zM250 507q6 46 18 64.5t41 32.5q2 -12 2 -17 q0 -59 -61 -80zM100 68q9 34 47.5 57.5t77.5 23.5q29 0 49 -15q-24 -25 -82 -45.5t-92 -20.5zM231 322q-22 -22 -54 -22q-40 0 -77 34q25 11 56 11q45 0 75 -23zM279 348q-7 21 -7 49q0 52 39 66q11 -16 11 -36q0 -48 -43 -79zM100 436q10 3 22 3q39 0 71 -29t37 -68 q-89 44 -112 67q-14 14 -18 27zM382 339q-6 -19 -8 -28.5t-5 -16.5q13 10 51 10q9 0 12 -1q-4 -4 -5.5 -15t-4.5 -17q4 -11 4 -40q0 -39 -32 -66t-73 -27q-39 0 -69 35t-30 76q0 37 23.5 58.5t58.5 29.5q4 4 16 11.5t23 17.5q6 -10 10 -28q5 1 29 1zM308 326 q-24 0 -48.5 -23.5t-25.5 -52.5q23 -54 58 -75q21 21 33 27q19 -5 26 -12q13 23 13 40q0 4 -1 6q21 0 28.5 8t10.5 24.5t10 25.5q-18 0 -35.5 -8t-21.5 -9q2 16 12 52q-3 0 -12 -0.5t-11 -0.5q-5 21 -5 22q-9 -10 -18.5 -15.5t-12.5 -8.5z" /></g></svg>