<svg xmlns="http://www.w3.org/2000/svg" viewBox="30 -115 580 830"><g><path d="M229 513l-10 -33l17 -2l7 18l3 17h-17zM195 511l-1 -26l6 -3l11 -1l-2 30h-14zM229 558l4 -30l15 3l-3 30zM207 556l-10 -33l15 3l9 31zM212 453l13 4l5 7l-30 2l-14 -8l-14 9l2 44l-9 2l4 8h7l17 42l12 13h5l1 -7l26 6l14 7l21 -11l3 -32l10 5l11 -10l-7 -16l-15 -2 l-5 -26l-9 -18l11 -14l-21 3l-18 -18zM217 580l18 19l-39 -14l-7 1l-3 42l23 7l11 -13l-10 -22l44 15l24 -8l-3 -13l-20 -2zM180 553l-24 -34l-4 -73l-9 3l-1 50l-20 -32l-12 2v24l9 11l13 48l-11 1l-11 4l5 9l20 2l-6 35l17 25l21 -12l-6 -44l24 3l2 -4l-28 -13v-12z M550 685h-460q-13 0 -21.5 -8.5t-8.5 -21.5v-710q0 -13 8.5 -21.5t21.5 -8.5h460q13 0 21.5 8.5t8.5 21.5v710q0 13 -8.5 21.5t-21.5 8.5zM610 655v-710q0 -25 -17.5 -42.5t-42.5 -17.5h-460q-25 0 -42.5 17.5t-17.5 42.5v710q0 25 17.5 42.5t42.5 17.5h460q25 0 42.5 -17.5 t17.5 -42.5zM362 169q12 0 26 -17q31 11 35 16q1 1 10 2q11 1 20 3q0 3 1 22t1 21q-5 2 -19 7q-3 -6 -11 -6q-6 0 -9 4q-4 -9 -11 -9q-11 0 -11 10q0 7 6 9q-4 6 -4 11q0 12 12 15q-12 22 -23 54q0 -10 -13 -10q-15 0 -15 13q-6 -2 -10 -2q-9 0 -15 5t-6 13q0 16 20 18 q-2 4 -2 6q0 6 5 10.5t12 4.5q4 0 5 -1q-8 28 -15 55q-2 -5 -8 -5q-9 0 -9 8t9 8q2 0 6 -2q-5 15 -10 42l9 1l8 -27q3 3 8 3q11 0 11 -10t-11 -10q-3 0 -4 1q8 -27 23 -75q1 0 3 0.5l2 0.5q13 0 13 -14q0 -5 -3 -8q6 -4 6 -11t-8 -9q14 -40 31 -65q3 -2 28 -13 q-2 43 -13 136q-4 -3 -10 -3q-12 0 -12 10q0 11 13 11q3 0 7 -2q-7 53 -10 75q-1 -1 -4 -1q-12 0 -12 11q0 3 1 4q-1 0 -2 1q-2 -1 -6 -1q-9 0 -15.5 7t-6.5 15q0 11 11 16q-1 1 -1 5q0 13 14 13q9 0 12 -6l-3 21q-4 -2 -7 -2q-13 0 -13 12q0 8 7 11q0 3 1 4q-12 0 -12 11 q0 9 11 9q3 0 7 -2l-7 52h11l10 -67q3 -2 3 -5q0 -2 -1 -3l6 -38q15 0 15 -11q0 -3 -2 -7q13 -4 13 -16q0 -7 -5 -11.5t-12 -4.5l2 -11q2 1 7 1q13 0 13 -13q0 -10 -13 -10q-3 0 -4 1q16 -107 21 -147q1 0 3.5 0.5t3.5 0.5q4 0 5 1q-7 2 -7 9q0 14 12 14q4 0 6 -1q4 15 5 27 q-6 3 -6 11q0 6 5 11q-6 2 -6 11q0 10 13 10l3 49q-6 2 -6 9q-4 0 -7.5 3t-3.5 7q0 10 9 10q5 0 9 -4q1 9 1 24q0 13 -1 18h10q1 -10 1 -30v-12l-1 -8q5 -2 5 -8q0 -4 -4 -8q-3 -53 -3 -55q8 0 8 -10q1 1 4 1q11 0 11 -13t-11 -13q-3 0 -4 1q-3 -5 -12 -7q-1 -4 -2.5 -13.5 t-2.5 -13.5q12 0 12 -10q0 -2 -2 -6q4 -4 4 -9q0 -13 -16 -13q-7 0 -12 5q-4 -2 -11 -4.5t-9 -3.5q6 -54 6 -111q21 -3 62 -6v-62q-21 5 -44 7.5t-36 4t-19 5.5q0 -25 -25 -49t-86 -59q2 -14 2 -24q0 -14 -7 -19q-74 -12 -115 -12q-4 -3 -9 -3q-9 5 -10 12l1 1q0 2 1 2l-5 4 q0 -12 -11 -12q-8 0 -8 10t11 10q-9 9 -14 15q0 -7 -5.5 -12.5t-13.5 -5.5q-13 0 -15 13q-4 -2 -7 -2q-11 0 -11 14q0 8 6 11q-2 6 -2 8q0 14 13 16l-16 24q-8 5 -8 10q0 14 12 14q13 0 13 -12q0 -8 -6 -11q9 -13 20 -26q2 1 6 1q12 0 12 -11q0 -3 -1 -5q15 0 15 -12 q0 -2 -2 -6q14 -13 35 -30q5 0 16.5 0.5t16.5 1.5l-9 14q-2 -2 -6 -2q-10 0 -10 9q0 7 8 9q-15 27 -36 76q-5 -5 -13 -5q-16 0 -18 15q-15 2 -15 15q0 9 10 14q-2 2 -2 6q0 11 10 11q3 0 7 -2q-13 39 -21 75l11 2q9 -34 14 -48q3 6 9 6q11 0 11 -12q0 -11 -14 -11l5 -14 q16 0 16 -14q9 -2 9 -13q0 -15 -9 -16q16 -39 32 -69q2 10 11 10q11 0 11 -10t-10 -10q-5 0 -7 1q18 -30 22 -35q32 5 47 13q0 2 1 5t1 5l-13 -5q-13 7 -13 19q5 5 50.5 34.5t55.5 51.5q-11 -3 -28 -5q-15 3 -20 23q6 10 23 18q-13 16 -15 24q5 7 13 7zM256 272 q6 -47 10 -72q3 6 11 6q13 0 13 -10q0 -13 -13 -13q-5 0 -9 2l4 -22q3 -1 3 -5q3 2 7 2q10 0 10 -11q0 -5 -4 -9t-8 -4h-1q-1 1 -2 1q3 -15 14 -58l29 -11q-9 -6 -19 -11l-33 17q0 1 -1 3t-1 3q0 2 6 6l5 -2q-2 8 -5.5 24t-5.5 23l-2 -1h-2q-9 0 -9 13q-2 -2 -5 -2 q-9 0 -9 9t9 9q2 0 3 -1q0 9 9 9q-4 20 -5 31q-2 -1 -4 -1q-2 -8 -10 -8q-5 0 -8 4q-1 -1 -4 -1q-11 0 -11 9q0 5 5 7q-7 4 -7 9q0 9 10 9q3 0 7 -2q1 6 9 6q6 0 9 -5q-7 68 -7 92h8q0 -8 2 -30q1 1 4 1q7 0 7 -8t-9 -8zM452 -5q-11 0 -12 10q0 5 1 6h-19q-2 -8 -10 -8 q-14 0 -14 9q0 2 1 3q-9 1 -21 6q12 6 24 14q19 -4 28 -4q3 0 8.5 0.5t9.5 0.5q4 12 10.5 24.5t9.5 21t3 18.5q20 -4 32 -4q4 -8 4 -12q0 -8 -19 -36q8 -5 16 -15q2 7 7 7q7 0 7 -7q0 -6 -9 -6q7 -9 13 -18q-1 -5 -9 -5q-2 2 -7 7.5t-8 8.5t-8 7t-11 7q-11 -22 -12 -31 q-1 -1 -3 -1t-3 -1q5 -3 5 -9q0 -8 -8 -8q-10 0 -10 7q0 5 4 8z" /></g></svg>