<svg xmlns="http://www.w3.org/2000/svg" viewBox="30 -115 580 830"><g><path d="M187 487l-21 -1l-2 -11l23 -12v24zM224 512l-20 -14l17 1zM200 518v-11l22 11h-22zM169 506l1 -11l16 2zM168 514l19 -7v9zM192 552l10 -6v-6l36 1l6 -1l-1 -7h-24l-17 -2v-7l33 2l5 -10l-9 -24l-3 -1l25 -16l-1 -11h-15l-18 26l-17 -1l1 -24l2 -14l-17 -8l-26 28l-23 -9 l-3 5l23 22l-9 27l9 6l4 -1l23 2l-1 6l-37 -5l-7 7l6 5l38 2l-1 6zM215 569l2 -8h38v8h-40zM215 584v-8h40l-1 8h-39zM133 561v-7l37 6v7zM132 576v-8l39 7v8zM262 596l5 -7l11 -119l-9 -20h-8l-5 12l2 33l-2 58l-38 1l-8 -4l-6 2l-6 7l4 30l3 7l10 -5zM180 550l-9 -4l-5 6 l-33 -5l-1 -80l5 -13l-6 -7l-20 11l-1 12l9 117l6 3l6 -6l42 8l13 -5v-29zM130 600l-1 6l18 -2l26 3l-13 10l9 11l12 -5l2 -15l12 2l5 11l-2 8l15 6l9 -11l-15 -12l39 5l17 -8l-6 -9l-28 5l-88 -11zM333 62q-54 47 -98 47q-11 0 -25 -2q5 -17 13 -30q20 2 31 2q46 0 79 -17z M379 40q43 -44 65 -85h-16q-21 35 -47 58zM550 685h-460q-13 0 -21.5 -8.5t-8.5 -21.5v-710q0 -13 8.5 -21.5t21.5 -8.5h460q13 0 21.5 8.5t8.5 21.5v710q0 13 -8.5 21.5t-21.5 8.5zM610 655v-710q0 -25 -17.5 -42.5t-42.5 -17.5h-460q-25 0 -42.5 17.5t-17.5 42.5v710 q0 25 17.5 42.5t42.5 17.5h460q25 0 42.5 -17.5t17.5 -42.5zM540 -45q-12 8 -21 17q-83 31 -115.5 69t-32.5 87q0 34 20 63q-14 42 -14 78q0 67 49 128q13 84 46 156t68 92q-2 -4 -22.5 -51t-34.5 -85t-24 -77q44 37 81 40q-9 -10 -42.5 -43t-49.5 -52q-6 -36 -6 -75 q0 -20 2 -60q40 26 96 45q-10 -17 -24 -29t-39 -28t-29 -19q15 -132 56 -197q20 -30 36 -39v-20zM473 58q-28 62 -42 140q-11 -8 -20 -22q19 -55 62 -118zM419 336q-22 -41 -22 -89q0 -17 5 -42q9 11 24 23q-7 54 -7 108zM505 -11q-66 82 -103 172q-11 -22 -11 -54 q0 -27 29 -62.5t85 -55.5zM319 211q-4 18 -5 27q-7 -4 -13 -4h-3l-2 1q-1 -2 -1 -5q0 -19 24 -19zM267 240q-3 1 -8 4t-10.5 12t-5.5 20q0 22 7 22q4 0 6.5 -3.5t4.5 -8.5t7 -13t12 -15q2 8 2 16q0 6 -1 17t-1 14q0 6 2 6q9 0 16 -10t7 -27q0 -10 -2 -15q7 10 8 13t2 28 q-12 16 -19 32q-2 0 -8 3t-13.5 13.5t-7.5 25.5q0 22 8 22q7 0 16 -16q0 4 6 4q9 0 9 -34q0 -9 -2 -15q6 -17 12 -25q1 31 9 67q-5 4 -10.5 20t-5.5 26q0 11 4.5 20.5t8.5 9.5q3 0 7 -4q-4 22 -4 28q0 29 13 29q15 0 15 -26q0 -8 -6 -26.5t-10 -22.5q0 -23 -3 -37 q5 12 13 12q9 0 9 -21q0 -17 -10.5 -33.5t-15.5 -17.5l-3 -42q4 0 7 -3q1 2 2.5 9.5t3 12.5t5 9.5t8.5 4.5q9 0 9 -14q0 -18 -19 -35q10 3 17.5 10.5t9.5 7.5q4 0 4 -9q0 -8 -6.5 -15.5t-21.5 -7.5q-7 0 -11 1q-1 -7 -7 -15q2 -14 4 -22q6 13 12 13q7 0 7 -34 q0 -7 -0.5 -16.5t-0.5 -14.5q14 56 16 56q4 0 10.5 -9.5t6.5 -19.5q0 -12 -11.5 -26t-21.5 -16q0 -3 -1 -5q22 -86 22 -153q0 -14 -2 -46h-15q-91 41 -137 102q-25 -9 -59 -43.5t-56 -49.5q4 36 32 66t72 42q-10 17 -15 29q-3 -1 -33.5 -18t-55.5 -21q21 44 82 59 q-5 22 -5 39q0 49 10.5 76.5t36.5 55.5q-4 -38 -9 -67.5t-7.5 -46.5t-2.5 -42q0 -7 1 -11q4 1 11 1q60 0 121 -53q3 -11 3 -35q-39 25 -84 25q-10 0 -24 -2q37 -51 120 -91q2 24 2 37q0 58 -16 124q-1 0 -5 0.5t-6 0.5q-14 0 -29 -4.5t-16 -4.5q-6 0 -6 4q0 3 3 7.5t11 9 t20 4.5q13 0 25 -5l-3 10q-12 1 -39 13t-27 21q0 8 17 8q9 0 16 -3t10.5 -6t9.5 -10t10 -10q-8 16 -8 30l-2 8q-15 0 -24.5 7.5t-10.5 17.5q-8 -12 -23 -12q-13 0 -21 5.5t-10 11.5t-2 11t4 5q3 0 16 -5t18 -5z" /></g></svg>