<svg xmlns="http://www.w3.org/2000/svg" viewBox="30 -115 580 830"><g><path d="M240 626l2 -12l-16 -31l41 8l13 -7l-5 -15l-19 -10l4 -76l-7 -37l-12 -2l-8 20l7 110l-30 -7l-8 5l12 40l-7 10l10 13zM157 617l4 -18l-13 -21l37 6l12 -9l-8 -13l-19 8l-2 -85l22 28l-19 -43l-7 -20l-12 -4l-10 19l13 99h-17l-28 -32l26 71l-11 11l11 11zM550 685h-460 q-13 0 -21.5 -8.5t-8.5 -21.5v-710q0 -13 8.5 -21.5t21.5 -8.5h460q13 0 21.5 8.5t8.5 21.5v710q0 13 -8.5 21.5t-21.5 8.5zM610 655v-710q0 -25 -17.5 -42.5t-42.5 -17.5h-460q-25 0 -42.5 17.5t-17.5 42.5v710q0 25 17.5 42.5t42.5 17.5h460q25 0 42.5 -17.5t17.5 -42.5z M480 459l15 -2l-9 -115l-10 68zM490 645h14l-8 -176l-15 2zM297 134q16 0 36 -23.5t26 -41.5q7 7 10 9l-37 65l5 7h8l35 -65q10 5 19 5q1 1 2 2.5t1 2.5l-6 40h5l5 -34q1 3 4 4q20 -12 20 -44q0 -27 -6 -53l24 -53h-22l-10 22q-5 -14 -10 -22q-12 26 -15 66l-13 9 q-22 -36 -55 -75q-2 6 -2 13q0 41 23 80q-4 4 -12 14l-18 13v6l3 1l3 -2q-2 4 -11 16t-13 20t-4 14v3q1 0 2 0.5t3 0.5zM312 234l4 2l27 -80h-6zM216 263q-30 -12 -116 -87q13 48 28 62q35 36 70 36q6 0 18 -11zM306 237q-28 0 -50 12q9 -14 13 -30l65 -65l-5 -7l-56 60 q3 -12 3 -23q0 -20 -5 -38q4 -4 4 -9q-4 -2 -6 -2q-2 -7 -6 -23l-7 23q-33 3 -64 13l-23 -45q23 7 41 7q7 0 10 -3q6 2 8 2q6 0 6 -7v-3l8 -3q5 11 10 12q8 -5 10 -17l18 -4q0 27 10 32l-11 14l2 2l12 -15l-1 -2l2 1l22 -35l-5 -2l-6 11q2 -8 3 -13h3v-4h-2q4 -28 4 -47 q0 -24 -7 -46q-26 35 -26 100l-18 4q0 -31 -5.5 -53.5t-12 -34t-19.5 -27.5q0 4 -1 15t-1 19q0 50 17 87l-7 3q-6 -24 -41.5 -65.5t-56.5 -46.5q14 49 56 97q-61 -29 -93 -40q5 16 23 32.5t42 26.5q-3 16 -3 34q0 11 2 25q-7 3 -21 11q5 1 15 2t11 1q6 19 18.5 38t22.5 30 t14 11q5 0 10 -4q-5 -31 -29 -78q29 -4 47 -12q-15 60 -15 89l-16 13l1 2l15 -12q0 8 1 10q-50 28 -90 55q4 1 14 1q29 0 64.5 -14.5t61.5 -36.5q10 -9 20 -28zM294 269l3 1l17 -30l-4 -1zM160 389q50 0 92 -40t42 -75q-26 14 -134 115zM308 292q0 73 7 121q25 -33 25 -99 q0 -13 -3.5 -24.5t-10.5 -26.5t-9 -21q-9 22 -9 50zM406 176h3l-8 -37h-5zM390 141q-3 2 -7.5 5.5t-12.5 20.5t-8 40q0 63 30 98q6 -23 6 -89q0 -42 -8 -75zM424 116q3 1 10 1q12 0 24 -6l-3 34q-19 -11 -33 -11q-7 0 -16 3q17 27 44 55l-1 17q-16 -17 -41 -26q3 38 35 88 l-1 12l11 2q6 9 13 16l-25 -5l-31 191l37 9l30 -184q11 12 24 18q-4 -32 -19 -66l5 -43q18 12 42 22q-6 -34 -38 -68l6 -64l-37 -1q10 -6 16 -12l21 1l2 -24q33 -39 41 -86q-16 9 -37 26l4 -60h-43l-4 101q-34 38 -36 60zM378 645h37l29 -136l-37 -9zM391 30v10l-4 7l-6 -11 z" /></g></svg>