<svg xmlns="http://www.w3.org/2000/svg" viewBox="30 -115 580 830"><g><path d="M610 655v-710q0 -25 -17.5 -42.5t-42.5 -17.5h-460q-25 0 -42.5 17.5t-17.5 42.5v710q0 25 17.5 42.5t42.5 17.5h460q25 0 42.5 -17.5t17.5 -42.5zM550 685h-460q-13 0 -21.5 -8.5t-8.5 -21.5v-710q0 -13 8.5 -21.5t21.5 -8.5h460q13 0 21.5 8.5t8.5 21.5v710 q0 13 -8.5 21.5t-21.5 8.5zM295 268q-2 0 -7.5 0.5t-8.5 0.5q-12 -21 -43 -59q5 -5 14.5 -17t17 -18.5t12.5 -6.5q9 0 15 100zM370 333q-8 4 -11 4q-5 0 -22 -4t-24 -5q-1 -5 -1 -17t1 -19q15 0 37 5q3 4 10 17.5t10 18.5zM294 326q-34 -2 -45 -8q7 -16 17 -26q5 -1 15 -1.5 t14 -0.5q0 7 -0.5 19t-0.5 17zM390 380q0 8 -24 8t-52 -7q-1 -7 -1.5 -18.5t-0.5 -15.5q14 2 22.5 8t19.5 6q4 0 7.5 -2t8 -6t7.5 -6q13 23 13 33zM293 378q-41 -8 -75 -23q17 -17 20 -22q9 5 28.5 7.5t27.5 4.5q0 5 -0.5 16t-0.5 17zM170 374q2 5 8 5q4 0 26 -10 q49 10 89 22q-1 6 -1 22q-3 0 -15 -3t-20 -3q-19 0 -25 14q4 1 24.5 3.5t33.5 7.5v3q0 35 -18 61t-18 54q28 -13 57 -20.5t37 -11.5t8 -16q0 -6 -5.5 -9t-12 -5.5t-13 -14.5t-8.5 -33q15 4 23 11.5t12 7.5q9 0 19.5 -6.5t10.5 -11.5t-8.5 -8t-27 -6.5t-30.5 -7.5 q0 -4 -1 -12t-1 -11l85 15q9 0 25 -17.5t16 -29.5q0 -10 -22 -13q-7 -19 -22 -38t-15 -28q0 -16 -9 -16q-6 0 -15 7q-13 -1 -20 -4q27 -34 66.5 -53t72.5 -32t46 -33q-15 2 -30.5 9t-21.5 7q-4 0 -20 -9.5t-27 -9.5q-14 0 -28 14.5t-37.5 51t-36.5 53.5q-2 -1 -8 -1 q0 -11 -1 -28t-1 -26q0 -28 7.5 -72.5t7.5 -49.5q0 -46 -19 -46q-11 0 -21 28t-10 50q0 10 -49 77q-54 -44 -85 -44q-17 0 -24 3q67 34 98 60l-4 13l9 -7q18 15 32 43q-10 1 -19 12q-1 1 0.5 3.5t1.5 3.5q0 2 -14.5 19t-31 37.5t-20.5 28.5z" /></g></svg>