<svg xmlns="http://www.w3.org/2000/svg" viewBox="30 -115 580 830"><g><path d="M302 312q-2 -4 -5 -19q48 13 67 26q2 6 2 9q0 6 -8 6q-3 0 -11 -4t-21 -9.5t-24 -8.5zM610 655v-710q0 -25 -17.5 -42.5t-42.5 -17.5h-460q-25 0 -42.5 17.5t-17.5 42.5v710q0 25 17.5 42.5t42.5 17.5h460q25 0 42.5 -17.5t17.5 -42.5zM550 685h-460q-13 0 -21.5 -8.5 t-8.5 -21.5v-710q0 -13 8.5 -21.5t21.5 -8.5h460q13 0 21.5 8.5t8.5 21.5v710q0 13 -8.5 21.5t-21.5 8.5zM385 232q-31 0 -55 -7q-1 -3 -3 -29q14 3 24.5 7t15 5.5t6.5 1.5q13 0 13 -16q0 -7 -6 -7q-25 0 -53 -7q-2 -44 -7 -60q35 -15 39 -15q3 0 9.5 7t17 24t20.5 39 q4 9 10.5 21.5t8.5 17.5l5 12.5t4 12.5t1 11q0 9 -35 47q-10 2 -19 0q-3 -4 -9 -12.5t-11.5 -17.5t-9.5 -18q21 4 29 4q6 0 11 -4.5t5 -10.5t-11 -6zM354 294q-48 -6 -77 -19q14 -22 20 -43q20 4 34 11q15 28 23 51zM300 171q-6 -2 -13 -4t-11.5 -3.5t-7.5 -1.5q-7 0 -12 10 q5 3 19 7t25 8q-1 5 -2 14t-2 14q-9 -2 -16 -5t-10.5 -5t-5.5 -2q-8 0 -15 9q7 6 36 16q-2 20 -21 41q-14 -4 -33 -14.5t-19 -16.5q0 -15 21 -57t21 -58q0 -7 -6 -12.5t-12 -5.5t-12 5.5t-12.5 17t-11.5 21.5t-12.5 26.5t-11.5 25.5q-20 38 -32 75l6 3q7 0 15 -3.5t18.5 -10 t17.5 -9.5q48 18 54 21q-16 16 -34.5 25t-28 12t-9.5 7t2.5 6.5t4.5 1.5q73 -31 81 -45q8 4 17 7q7 36 10 69q-24 -6 -48 -6q-6 0 -11 6q3 3 26 9.5t38 15.5q5 52 5 68q0 31 -11 31h-3q14 30 38 52q10 -4 28.5 -31.5t18.5 -45.5q0 -1 -0.5 -4t-0.5 -4q-3 -1 -8 -1 q-13 0 -24 9q-2 -7 -6.5 -28t-7.5 -31q8 4 23 17.5t20 13.5q6 0 13.5 -13t8.5 -21q-26 -14 -75 -28q-9 -23 -18 -52q17 3 53 30t49 34q20 -18 20 -25q0 -6 -2.5 -9.5t-7.5 -8t-8 -8.5q18 0 25.5 -1.5t16.5 -9t20 -25.5q5 -8 12.5 -17.5t10.5 -15.5t3 -14q0 -17 -38 -84 q-9 -15 -19 -34l-15 -28.5t-11.5 -19t-12 -13t-12.5 -3.5q-9 0 -17 3.5t-16 10t-29 21t-47 30.5q10 0 19 -3q2 12 2 44z" /></g></svg>