<svg xmlns="http://www.w3.org/2000/svg" viewBox="30 -115 580 830"><g><path d="M610 655v-710q0 -25 -17.5 -42.5t-42.5 -17.5h-460q-25 0 -42.5 17.5t-17.5 42.5v710q0 25 17.5 42.5t42.5 17.5h460q25 0 42.5 -17.5t17.5 -42.5zM550 685h-460q-13 0 -21.5 -8.5t-8.5 -21.5v-710q0 -13 8.5 -21.5t21.5 -8.5h460q13 0 21.5 8.5t8.5 21.5v710 q0 13 -8.5 21.5t-21.5 8.5zM123 135q0 8 12.5 22.5t32 49t32.5 84.5q-35 23 -38 48q20 -9 45 -12q1 10 6 19q3 -7 4 -23q28 -9 28 -22q0 -14 -32 -14q-6 -32 -12 -57.5t-8.5 -35.5t-2.5 -14q0 -8 2 -11q10 1 36.5 17.5t41.5 28.5q6 10 6 43q0 7 -0.5 24t-0.5 25 q0 28 -5 45.5t-11.5 23.5t-11.5 13t-5 16q0 11 8 19q16 -6 33.5 -10.5t23 -7t11.5 -9.5t10 -21q-17 -11 -21 -34t-6 -104q10 6 23.5 17t18.5 14q0 24 4 59.5t4 48.5q0 8 -1 14.5t-3 11t-3.5 8t-5 6.5t-5 4.5t-6 4t-5.5 3.5q4 12 10.5 20.5t17.5 18t17 16.5q9 -7 24.5 -27.5 t15.5 -32.5q0 -4 -5.5 -8.5t-11.5 -9t-11.5 -20t-5.5 -39.5v-58q7 5 19 12t17.5 10.5t10 11t4.5 17.5q0 2 -0.5 4t-0.5 4q6 6 21 6q14 0 29 -9.5t15 -22.5q0 -6 -12.5 -9t-42 -12.5t-58.5 -27.5v-8q0 -62 11 -79t50 -17q20 0 40.5 4.5t27.5 4.5q13 0 13 -10q0 -42 -113 -42 q-26 0 -42.5 11t-16.5 30q0 7 0.5 17.5t0.5 16.5q0 11 -1.5 28.5t-1.5 25.5q-19 -14 -42 -34q0 -4 1 -10t1 -10q0 -13 -8.5 -22.5t-14.5 -10.5q-3 0 -7 3.5t-4 7.5q0 5 -7 14q-19 -13 -42.5 -35t-41 -33t-37.5 -11q-18 0 -18 21z" /></g></svg>