<svg xmlns="http://www.w3.org/2000/svg" viewBox="30 -115 580 830"><g><path d="M610 655v-710q0 -25 -17.5 -42.5t-42.5 -17.5h-460q-25 0 -42.5 17.5t-17.5 42.5v710q0 25 17.5 42.5t42.5 17.5h460q25 0 42.5 -17.5t17.5 -42.5zM550 685h-460q-13 0 -21.5 -8.5t-8.5 -21.5v-710q0 -13 8.5 -21.5t21.5 -8.5h460q13 0 21.5 8.5t8.5 21.5v710 q0 13 -8.5 21.5t-21.5 8.5zM334 372q-4 -48 -4 -84q4 0 14 -0.5t18 -0.5q3 4 12 16.5t14 20t11.5 18t9.5 19t3 14.5q0 12 -16 12q-22 0 -62 -15zM230 339q22 -31 36 -60q16 2 32 6v75q-9 -3 -22.5 -9.5t-23 -10t-14.5 -3.5q-4 0 -8 2zM304 540q20 -8 39 -33t19 -39 q0 -6 -3.5 -10.5t-8 -8.5t-9.5 -18t-7 -36q13 4 34 12.5t35 13.5t21 5q8 0 22 -18q3 -4 13 -14t13.5 -14.5t7.5 -12t4 -13.5q0 -9 -8 -9q-19 0 -28 -7q-7 -11 -18.5 -26t-18.5 -24t-7 -13q0 -18 -14 -18q-5 0 -20.5 3t-39.5 4q0 -9 -1 -42.5t-1 -37.5q0 -7 2 -38t2 -42 q0 -26 -7 -52t-15 -34q-12 10 -12 77q0 7 1 30t1 42q0 11 -1 45.5t-1 50.5q-8 0 -27 -6.5t-31 -6.5q-8 0 -8 15q0 9 -38 42t-38 50q0 25 8 34q8 -5 19.5 -15t20 -16t14.5 -6t41 13t39 17v15t-0.5 17.5t-1.5 16t-3 16t-4.5 12t-7.5 10t-11 3.5q0 2 -2 7.5t-2 8.5q0 23 38 50z " /></g></svg>