<svg xmlns="http://www.w3.org/2000/svg" viewBox="30 -115 580 830"><g><path d="M610 655v-710q0 -25 -17.5 -42.5t-42.5 -17.5h-460q-25 0 -42.5 17.5t-17.5 42.5v710q0 25 17.5 42.5t42.5 17.5h460q25 0 42.5 -17.5t17.5 -42.5zM550 685h-460q-13 0 -21.5 -8.5t-8.5 -21.5v-710q0 -13 8.5 -21.5t21.5 -8.5h460q13 0 21.5 8.5t8.5 21.5v710 q0 13 -8.5 21.5t-21.5 8.5zM179 170q16 -16 42 -16q10 0 25 21t15 29q0 6 -6 10q-50 -23 -76 -44zM301 254q0 3 1.5 7t4 11.5t3.5 12.5q-26 -4 -43 -21q2 -9 9 -13.5t8 -6.5q8 -17 9 -20q5 1 44 7q4 20 4 37q-13 0 -21 3q-14 -16 -19 -17zM382 179q6 6 25 6q23 0 44 -12 t21 -27t-15.5 -24.5t-32.5 -9.5q-1 0 -2.5 0.5t-2.5 0.5q-5 7 -12 24t-25 42zM446 225q-4 -10 -39 -10q-5 0 -15.5 0.5t-16.5 0.5q-2 0 -7.5 -0.5t-8.5 -0.5q-6 -55 -9 -60q-7 -10 -33.5 -25.5t-35.5 -15.5q-5 0 -9.5 4t-4.5 9q0 6 14.5 16t31 27.5t19.5 41.5 q-4 -1 -21 -2.5t-25 -3.5q-6 -12 -13.5 -28.5t-11.5 -25t-9.5 -17.5t-11.5 -13t-14 -4q-7 0 -15 5t-13 10.5t-14 16.5t-13 15q-5 -2 -22 -2q-16 0 -26 35q26 -11 35 -11q8 0 57 22t54 27q-1 8 -17 19q-10 -2 -26 -16.5t-25 -14.5q-12 0 -17 8q7 4 32 22t40 24q8 10 8 24 q-4 2 -10 2q-9 0 -25 -10q-32 -38 -56 -54.5t-62 -23.5q81 65 120 116q-3 6 -27.5 29.5t-25.5 37.5q16 -2 38 -18.5t32 -27.5q28 34 39 65q-11 -1 -31 -11t-31 -10q-8 0 -12 4q1 1 13.5 10t28 20t24.5 19q6 6 13.5 16t13.5 16t12 6t12 -4.5t6 -10.5q0 -1 -7 -20q3 -5 19 -23 q9 12 22 50t18 43q5 -2 13 -13.5t8 -19.5q0 -3 -4.5 -7t-6.5 -8q-12 -31 -36 -65q17 -26 21 -30q21 21 27 42q9 -1 17 -9t8 -15t-5 -7q-6 0 -12 -4t-12.5 -11t-10.5 -10q30 -40 51 -61t29 -24.5t21 -21.5t33 -59q-10 0 -25.5 8t-38.5 22t-40 22q-6 9 -15 34.5t-33 64.5 q-8 -4 -17 -4q10 17 10 18q-27 52 -49 75q-14 -28 -63 -105q6 -6 14 -6q4 0 11 4.5t11 4.5q12 0 16 -8q-2 -4 -6 -7t-9 -5.5t-8 -4.5q-6 -10 -4 -21q17 3 33 13q13 47 13 80q0 8 -1 15q25 -16 25 -36q0 -7 -1.5 -11t-4 -8t-8 -18.5t-12.5 -37.5q5 -6 8 -6q7 0 22.5 8t26.5 8 q10 0 14 -15q-2 -2 -14.5 -5t-18.5 -7q-3 -18 -4 -38q10 0 22 1t14 1q4 0 9.5 3.5t9.5 2.5q21 -5 30 -17z" /></g></svg>