<svg xmlns="http://www.w3.org/2000/svg" viewBox="30 -115 580 830"><g><path d="M610 655v-710q0 -25 -17.5 -42.5t-42.5 -17.5h-460q-25 0 -42.5 17.5t-17.5 42.5v710q0 25 17.5 42.5t42.5 17.5h460q25 0 42.5 -17.5t17.5 -42.5zM590 -55v710q0 27 -25 37v-784q25 10 25 37zM85 -95h20v790h-20v-790zM75 -92v784q-25 -10 -25 -37v-710q0 -27 25 -37z M115 -95h20v790h-20v-790zM145 -95h20v790h-20v-790zM175 -95h20v790h-20v-790zM205 -95h20v790h-20v-790zM235 -95h20v790h-20v-790zM265 -95h20v790h-20v-790zM295 -95h20v790h-20v-790zM325 -95h20v790h-20v-790zM355 -95h20v790h-20v-790zM385 -95h20v790h-20v-790z M415 -95h20v790h-20v-790zM445 -95h20v790h-20v-790zM475 -95h20v790h-20v-790zM505 -95h20v790h-20v-790zM535 -95h20v790h-20v-790z" /></g></svg>