<svg xmlns="http://www.w3.org/2000/svg" viewBox="30 -115 580 830"><g><path d="M485 -5h20v-20h-20v20zM475 5v-40h40v40h-40zM465 15h60v-60h-60v60zM135 -5h20v-20h-20v20zM125 5v-40h40v40h-40zM115 15h60v-60h-60v60zM485 625h20v-20h-20v20zM475 635v-40h40v40h-40zM465 645h60v-60h-60v60zM135 625h20v-20h-20v20zM125 635v-40h40v40h-40z M115 645h60v-60h-60v60zM325 15h50v-40h-30v20h10v-10h10v20h-30v-40h50v50h70v-60h-50v40h30v-20h-10v10h-10v-20h30v40h-50v-50h-70v60zM185 15h50v-40h-30v20h10v-10h10v20h-30v-40h50v50h70v-60h-50v40h30v-20h-10v10h-10v-20h30v40h-50v-50h-70v60zM325 645h50v-40h-30 v20h10v-10h10v20h-30v-40h50v50h70v-60h-50v40h30v-20h-10v10h-10v-20h30v40h-50v-50h-70v60zM185 645h50v-40h-30v20h10v-10h10v20h-30v-40h50v50h70v-60h-50v40h30v-20h-10v10h-10v-20h30v40h-50v-50h-70v60zM525 155v-50h-40v30h20v-10h-10v-10h20v30h-40v-50h50v-70h-60 v50h40v-30h-20v10h10v10h-20v-30h40v50h-50v70h60zM525 295v-50h-40v30h20v-10h-10v-10h20v30h-40v-50h50v-70h-60v50h40v-30h-20v10h10v10h-20v-30h40v50h-50v70h60zM525 435v-50h-40v30h20v-10h-10v-10h20v30h-40v-50h50v-70h-60v50h40v-30h-20v10h10v10h-20v-30h40v50 h-50v70h60zM525 575v-50h-40v30h20v-10h-10v-10h20v30h-40v-50h50v-70h-60v50h40v-30h-20v10h10v10h-20v-30h40v50h-50v70h60zM175 155v-50h-40v30h20v-10h-10v-10h20v30h-40v-50h50v-70h-60v50h40v-30h-20v10h10v10h-20v-30h40v50h-50v70h60zM175 295v-50h-40v30h20v-10 h-10v-10h20v30h-40v-50h50v-70h-60v50h40v-30h-20v10h10v10h-20v-30h40v50h-50v70h60zM175 435v-50h-40v30h20v-10h-10v-10h20v30h-40v-50h50v-70h-60v50h40v-30h-20v10h10v10h-20v-30h40v50h-50v70h60zM363 425q0 16 -16 16q-15 -1 -34 -6.5t-25 -5.5q-8 0 -16 7q6 1 10 1 h5q16 3 44 12.5t35 9.5q8 0 19 -11.5t11 -21.5q0 -3 -3 -6.5t-9.5 -20.5t-13.5 -49q-3 -19 -6 -19q-6 0 -19 0.5t-18 0.5l-8 -2q-8 -1 -13 -1q-21 0 -21 16q0 8 22 17.5t24 17.5q-3 8 -17 8q-2 0 -7.5 -1t-8.5 -1q-6 0 -8.5 2t-1.5 7q11 14 29 14q27 0 27 -18 q0 -11 -6 -17.5t-17.5 -12.5t-16.5 -10q10 -2 23 -2q14 0 29 5q7 49 7 71zM374 506q16 0 27.5 -7.5t13.5 -16.5q-11 -6 -23 -6q-7 0 -24 3t-30 3q4 -2 1 -13q-6 -3 -36 -13.5t-42 -15.5q18 -16 18 -75q0 -32 -8 -32q-7 0 -7.5 11t-3.5 37t-13 52q0 1 -2 5q-7 12 0 12 q5 0 12 -7q40 23 50 37q-21 -6 -40 -6q-16 0 -25 1.5t-10.5 2.5t-9.5 7q50 5 92 13t60 8zM313 174l4 -1q7 0 17 4.5t23 4.5q7 0 14 -5q-7 8 -17 18t-13 14zM341 228q6 0 7.5 -4t-1.5 -8q24 -22 80 -57q-4 1 -10 1q-5 0 -11 -2.5t-9 -2.5q-9 0 -20 11q-3 -3 -11.5 -2t-12.5 1 q-6 0 -18.5 -2t-19.5 -2q-6 0 -8 2q-5 -5 -18 -5l-16 2q15 15 29 28t19.5 18.5t7.5 8.5q-2 8 -2 9q2 0 7 2t7 2zM225 221q2 0 7.5 -2t8.5 -2q8 0 14 3q0 16 -4.5 25.5t-9.5 9.5q3 14 16 23q8 -4 22 -25q-1 -4 -5 -11t-5 -13q4 2 8 3q10 -2 10 -20l-18 -15v-16q3 3 18 16 l-18 -25q0 -17 1 -37.5t1 -24.5q0 -16 -10 -16q-12 0 -12 19q0 5 2.5 17.5t3.5 21.5q-2 -3 -12 -22q-24 2 -24 13q0 2 4.5 3.5t5.5 2.5l24 32q-2 -5 -3 -9t-3 -9l8 14v24q-7 0 -18 6t-12 14zM273 214q-6 -1 -6 -5v-7q2 3 3.5 7t2.5 5zM369 135q-3 8 -18 8q-10 0 -34 -6 q12 -13 12 -24q2 0 11 2t15 2h6q2 8 4.5 11.5t3.5 6.5zM325 97q-10 0 -12 5q-2 3 4 6q-6 12 -10.5 19.5t-6 9t-1.5 3.5q0 6 4 6q4 2 8 -2q28 10 46 10q11 0 19 -4.5t10.5 -8t2.5 -5.5q0 -1 -2 -3l-7 -7t-9 -15q3 -3 0 -7.5t-8 -4.5q-2 0 -9 1.5t-13 0.5q-3 0 -8 -2t-8 -2z M353 277q8 -4 8 -11q0 -8 -8 -20l28 6q6 0 11 -4t5 -8q0 -10 -4 -10t-9.5 3t-16.5 3t-31 -5.5t-29 -5.5q-14 0 -22 9q3 5 10 5q3 0 8.5 -1t7.5 -1q10 0 10 8q0 1 -4 9q0 4 3.5 5.5t4.5 2.5l2.5 2.5l2.5 2.5t3 1t2 -5q0 -6 -2 -11t-2 -7l2 -2q4 0 8 6.5t4 12.5q0 2 -4 8 q5 5 12 7zM550 685h-460q-13 0 -21.5 -8.5t-8.5 -21.5v-710q0 -13 8.5 -21.5t21.5 -8.5h460q13 0 21.5 8.5t8.5 21.5v710q0 13 -8.5 21.5t-21.5 8.5zM610 655v-710q0 -25 -17.5 -42.5t-42.5 -17.5h-460q-25 0 -42.5 17.5t-17.5 42.5v710q0 25 17.5 42.5t42.5 17.5h460 q25 0 42.5 -17.5t17.5 -42.5zM175 575v-50h-40v30h20v-10h-10v-10h20v30h-40v-50h50v-70h-60v50h40v-30h-20v10h10v10h-20v-30h40v50h-50v70h60z" /></g></svg>